<svg id="my-svg" width="100%" xmlns="http://www.w3.org/2000/svg" xmlns:xlink="http://www.w3.org/1999/xlink" class="erDiagram" style="max-width: 877.445px; background-color: transparent;" viewBox="0 0 877.4453125 1473.25" role="graphics-document document" aria-roledescription="er"><style>#my-svg{font-family:"trebuchet ms",verdana,arial,sans-serif;font-size:16px;fill:#333;}@keyframes edge-animation-frame{from{stroke-dashoffset:0;}}@keyframes dash{to{stroke-dashoffset:0;}}#my-svg .edge-animation-slow{stroke-dasharray:9,5!important;stroke-dashoffset:900;animation:dash 50s linear infinite;stroke-linecap:round;}#my-svg .edge-animation-fast{stroke-dasharray:9,5!important;stroke-dashoffset:900;animation:dash 20s linear infinite;stroke-linecap:round;}#my-svg .error-icon{fill:#552222;}#my-svg .error-text{fill:#552222;stroke:#552222;}#my-svg .edge-thickness-normal{stroke-width:1px;}#my-svg .edge-thickness-thick{stroke-width:3.5px;}#my-svg .edge-pattern-solid{stroke-dasharray:0;}#my-svg .edge-thickness-invisible{stroke-width:0;fill:none;}#my-svg .edge-pattern-dashed{stroke-dasharray:3;}#my-svg .edge-pattern-dotted{stroke-dasharray:2;}#my-svg .marker{fill:#333333;stroke:#333333;}#my-svg .marker.cross{stroke:#333333;}#my-svg svg{font-family:"trebuchet ms",verdana,arial,sans-serif;font-size:16px;}#my-svg p{margin:0;}#my-svg .entityBox{fill:#ECECFF;stroke:#9370DB;}#my-svg .relationshipLabelBox{fill:hsl(80, 100%, 96.2745098039%);opacity:0.7;background-color:hsl(80, 100%, 96.2745098039%);}#my-svg .relationshipLabelBox rect{opacity:0.5;}#my-svg .labelBkg{background-color:rgba(248.6666666666, 255, 235.9999999999, 0.5);}#my-svg .edgeLabel .label{fill:#9370DB;font-size:14px;}#my-svg .label{font-family:"trebuchet ms",verdana,arial,sans-serif;color:#333;}#my-svg .edge-pattern-dashed{stroke-dasharray:8,8;}#my-svg .node rect,#my-svg .node circle,#my-svg .node ellipse,#my-svg .node polygon{fill:#ECECFF;stroke:#9370DB;stroke-width:1px;}#my-svg .relationshipLine{stroke:#333333;stroke-width:1;fill:none;}#my-svg .marker{fill:none!important;stroke:#333333!important;stroke-width:1;}#my-svg .edgeLabel{background-color:rgba(232,232,232, 0.8);}#my-svg .edgeLabel .label rect{fill:rgba(232,232,232, 0.8);}#my-svg .edgeLabel .label text{fill:#333;}#my-svg :root{--mermaid-font-family:"trebuchet ms",verdana,arial,sans-serif;}</style><g><defs><marker id="my-svg_er-onlyOneStart" class="marker onlyOne er" refX="0" refY="9" markerWidth="18" markerHeight="18" orient="auto"><path d="M9,0 L9,18 M15,0 L15,18"/></marker></defs><defs><marker id="my-svg_er-onlyOneEnd" class="marker onlyOne er" refX="18" refY="9" markerWidth="18" markerHeight="18" orient="auto"><path d="M3,0 L3,18 M9,0 L9,18"/></marker></defs><defs><marker id="my-svg_er-zeroOrOneStart" class="marker zeroOrOne er" refX="0" refY="9" markerWidth="30" markerHeight="18" orient="auto"><circle fill="white" cx="21" cy="9" r="6"/><path d="M9,0 L9,18"/></marker></defs><defs><marker id="my-svg_er-zeroOrOneEnd" class="marker zeroOrOne er" refX="30" refY="9" markerWidth="30" markerHeight="18" orient="auto"><circle fill="white" cx="9" cy="9" r="6"/><path d="M21,0 L21,18"/></marker></defs><defs><marker id="my-svg_er-oneOrMoreStart" class="marker oneOrMore er" refX="18" refY="18" markerWidth="45" markerHeight="36" orient="auto"><path d="M0,18 Q 18,0 36,18 Q 18,36 0,18 M42,9 L42,27"/></marker></defs><defs><marker id="my-svg_er-oneOrMoreEnd" class="marker oneOrMore er" refX="27" refY="18" markerWidth="45" markerHeight="36" orient="auto"><path d="M3,9 L3,27 M9,18 Q27,0 45,18 Q27,36 9,18"/></marker></defs><defs><marker id="my-svg_er-zeroOrMoreStart" class="marker zeroOrMore er" refX="18" refY="18" markerWidth="57" markerHeight="36" orient="auto"><circle fill="white" cx="48" cy="18" r="6"/><path d="M0,18 Q18,0 36,18 Q18,36 0,18"/></marker></defs><defs><marker id="my-svg_er-zeroOrMoreEnd" class="marker zeroOrMore er" refX="39" refY="18" markerWidth="57" markerHeight="36" orient="auto"><circle fill="white" cx="9" cy="18" r="6"/><path d="M21,18 Q39,0 57,18 Q39,36 21,18"/></marker></defs><g class="root"><g class="clusters"/><g class="edgePaths"><path d="M291.441,264.5L303.18,287.167C314.918,309.833,338.395,355.167,350.133,386.25C361.871,417.333,361.871,434.167,361.871,442.583L361.871,451" id="id_entity-Province-0_entity-WaterManagementArea-1_0" class="edge-thickness-normal edge-pattern-solid relationshipLine" style="undefined;;;undefined" data-edge="true" data-et="edge" data-id="id_entity-Province-0_entity-WaterManagementArea-1_0" data-points="W3sieCI6MjkxLjQ0MTQ5NDQyNzIwMDksInkiOjI2NC41fSx7IngiOjM2MS44NzEwOTM3NSwieSI6NDAwLjV9LHsieCI6MzYxLjg3MTA5Mzc1LCJ5Ijo0NTF9XQ==" marker-start="url(#my-svg_er-onlyOneStart)" marker-end="url(#my-svg_er-zeroOrMoreEnd)"/><path d="M202.887,264.5L191.148,287.167C179.41,309.833,155.934,355.167,144.195,404.063C132.457,452.958,132.457,505.417,132.457,557.875C132.457,610.333,132.457,662.792,137.858,697.438C143.259,732.083,154.062,748.917,159.463,757.333L164.864,765.75" id="id_entity-Province-0_entity-OrganisationalUnit-2_1" class="edge-thickness-normal edge-pattern-solid relationshipLine" style="undefined;;;undefined" data-edge="true" data-et="edge" data-id="id_entity-Province-0_entity-OrganisationalUnit-2_1" data-points="W3sieCI6MjAyLjg4NjYzMDU3Mjc5OTEsInkiOjI2NC41fSx7IngiOjEzMi40NTcwMzEyNSwieSI6NDAwLjV9LHsieCI6MTMyLjQ1NzAzMTI1LCJ5Ijo1NTcuODc1fSx7IngiOjEzMi40NTcwMzEyNSwieSI6NzE1LjI1fSx7IngiOjE2NC44NjM3NzI5NDU4MDQyMSwieSI6NzY1Ljc1fV0=" marker-start="url(#my-svg_er-onlyOneStart)" marker-end="url(#my-svg_er-zeroOrMoreEnd)"/><path d="M361.871,664.75L361.871,673.167C361.871,681.583,361.871,698.417,356.47,715.25C351.069,732.083,340.267,748.917,334.865,757.333L329.464,765.75" id="id_entity-WaterManagementArea-1_entity-OrganisationalUnit-2_2" class="edge-thickness-normal edge-pattern-solid relationshipLine" style="undefined;;;undefined" data-edge="true" data-et="edge" data-id="id_entity-WaterManagementArea-1_entity-OrganisationalUnit-2_2" data-points="W3sieCI6MzYxLjg3MTA5Mzc1LCJ5Ijo2NjQuNzV9LHsieCI6MzYxLjg3MTA5Mzc1LCJ5Ijo3MTUuMjV9LHsieCI6MzI5LjQ2NDM1MjA1NDE5NTgsInkiOjc2NS43NX1d" marker-start="url(#my-svg_er-onlyOneStart)" marker-end="url(#my-svg_er-zeroOrMoreEnd)"/><path d="M247.164,1022.25L247.164,1030.667C247.164,1039.083,247.164,1055.917,247.164,1072.75C247.164,1089.583,247.164,1106.417,247.164,1114.833L247.164,1123.25" id="id_entity-OrganisationalUnit-2_entity-ApplicationUser-4_3" class="edge-thickness-normal edge-pattern-solid relationshipLine" style="undefined;;;undefined" data-edge="true" data-et="edge" data-id="id_entity-OrganisationalUnit-2_entity-ApplicationUser-4_3" data-points="W3sieCI6MjQ3LjE2NDA2MjUsInkiOjEwMjIuMjV9LHsieCI6MjQ3LjE2NDA2MjUsInkiOjEwNzIuNzV9LHsieCI6MjQ3LjE2NDA2MjUsInkiOjExMjMuMjV9XQ==" marker-start="url(#my-svg_er-onlyOneStart)" marker-end="url(#my-svg_er-zeroOrMoreEnd)"/></g><g class="edgeLabels"><g class="edgeLabel" transform="translate(361.87109375, 400.5)"><g class="label" data-id="id_entity-Province-0_entity-WaterManagementArea-1_0" transform="translate(-55.609375, -10.5)"><foreignObject width="111.21875" height="21"><div xmlns="http://www.w3.org/1999/xhtml" class="labelBkg" style="display: table-cell; white-space: nowrap; line-height: 1.5; max-width: 200px; text-align: center;"><span class="edgeLabel"><p>contains 19 WMAs</p></span></div></foreignObject></g></g><g class="edgeLabel" transform="translate(132.45703125, 557.875)"><g class="label" data-id="id_entity-Province-0_entity-OrganisationalUnit-2_1" transform="translate(-41.421875, -10.5)"><foreignObject width="82.84375" height="21"><div xmlns="http://www.w3.org/1999/xhtml" class="labelBkg" style="display: table-cell; white-space: nowrap; line-height: 1.5; max-width: 200px; text-align: center;"><span class="edgeLabel"><p>has offices in</p></span></div></foreignObject></g></g><g class="edgeLabel" transform="translate(361.87109375, 715.25)"><g class="label" data-id="id_entity-WaterManagementArea-1_entity-OrganisationalUnit-2_2" transform="translate(-34.375, -10.5)"><foreignObject width="68.75" height="21"><div xmlns="http://www.w3.org/1999/xhtml" class="labelBkg" style="display: table-cell; white-space: nowrap; line-height: 1.5; max-width: 200px; text-align: center;"><span class="edgeLabel"><p>covered by</p></span></div></foreignObject></g></g><g class="edgeLabel" transform="translate(247.1640625, 1072.75)"><g class="label" data-id="id_entity-OrganisationalUnit-2_entity-ApplicationUser-4_3" transform="translate(-25.640625, -10.5)"><foreignObject width="51.28125" height="21"><div xmlns="http://www.w3.org/1999/xhtml" class="labelBkg" style="display: table-cell; white-space: nowrap; line-height: 1.5; max-width: 200px; text-align: center;"><span class="edgeLabel"><p>employs</p></span></div></foreignObject></g></g></g><g class="nodes"><g class="node default" id="entity-Province-0" transform="translate(247.1640625, 179)"><g style=""><path d="M-117.453125 -85.5 L117.453125 -85.5 L117.453125 85.5 L-117.453125 85.5" stroke="none" stroke-width="0" fill="#ECECFF"/><path d="M-117.453125 -85.5 C-54.84025237715149 -85.5, 7.772620245697027 -85.5, 117.453125 -85.5 M-117.453125 -85.5 C-34.699473760162945 -85.5, 48.05417747967411 -85.5, 117.453125 -85.5 M117.453125 -85.5 C117.453125 -49.21537170459816, 117.453125 -12.930743409196324, 117.453125 85.5 M117.453125 -85.5 C117.453125 -28.671061653268268, 117.453125 28.157876693463464, 117.453125 85.5 M117.453125 85.5 C36.75893377193347 85.5, -43.93525745613306 85.5, -117.453125 85.5 M117.453125 85.5 C51.976753920031584 85.5, -13.499617159936832 85.5, -117.453125 85.5 M-117.453125 85.5 C-117.453125 30.89239688664916, -117.453125 -23.71520622670168, -117.453125 -85.5 M-117.453125 85.5 C-117.453125 21.64575270054023, -117.453125 -42.20849459891954, -117.453125 -85.5" stroke="#9370DB" stroke-width="1.3" fill="none" stroke-dasharray="0 0"/></g><g style="" class="row-rect-odd"><path d="M-117.453125 -42.75 L117.453125 -42.75 L117.453125 0 L-117.453125 0" stroke="none" stroke-width="0" fill="hsl(240, 100%, 100%)"/><path d="M-117.453125 -42.75 C-55.57671512862085 -42.75, 6.299694742758305 -42.75, 117.453125 -42.75 M-117.453125 -42.75 C-33.86741937168834 -42.75, 49.718286256623315 -42.75, 117.453125 -42.75 M117.453125 -42.75 C117.453125 -29.558859696113377, 117.453125 -16.367719392226753, 117.453125 0 M117.453125 -42.75 C117.453125 -28.755301707050915, 117.453125 -14.76060341410183, 117.453125 0 M117.453125 0 C28.03890617809472 0, -61.37531264381056 0, -117.453125 0 M117.453125 0 C28.793902776298864 0, -59.86531944740227 0, -117.453125 0 M-117.453125 0 C-117.453125 -11.490266402503927, -117.453125 -22.980532805007854, -117.453125 -42.75 M-117.453125 0 C-117.453125 -15.006070939814434, -117.453125 -30.012141879628867, -117.453125 -42.75" stroke="#9370DB" stroke-width="1.3" fill="none" stroke-dasharray="0 0"/></g><g style="" class="row-rect-even"><path d="M-117.453125 0 L117.453125 0 L117.453125 42.75 L-117.453125 42.75" stroke="none" stroke-width="0" fill="hsl(240, 100%, 97.2745098039%)"/><path d="M-117.453125 0 C-62.61951254073805 0, -7.7859000814761 0, 117.453125 0 M-117.453125 0 C-50.55543796850219 0, 16.34224906299562 0, 117.453125 0 M117.453125 0 C117.453125 11.934602955364092, 117.453125 23.869205910728184, 117.453125 42.75 M117.453125 0 C117.453125 12.064594547763981, 117.453125 24.129189095527963, 117.453125 42.75 M117.453125 42.75 C42.437801499700456 42.75, -32.57752200059909 42.75, -117.453125 42.75 M117.453125 42.75 C69.22783486775143 42.75, 21.002544735502838 42.75, -117.453125 42.75 M-117.453125 42.75 C-117.453125 29.739937759243475, -117.453125 16.72987551848695, -117.453125 0 M-117.453125 42.75 C-117.453125 30.739055890665767, -117.453125 18.72811178133153, -117.453125 0" stroke="#9370DB" stroke-width="1.3" fill="none" stroke-dasharray="0 0"/></g><g style="" class="row-rect-odd"><path d="M-117.453125 42.75 L117.453125 42.75 L117.453125 85.5 L-117.453125 85.5" stroke="none" stroke-width="0" fill="hsl(240, 100%, 100%)"/><path d="M-117.453125 42.75 C-58.02089159880634 42.75, 1.4113418023873265 42.75, 117.453125 42.75 M-117.453125 42.75 C-26.643761466087156 42.75, 64.16560206782569 42.75, 117.453125 42.75 M117.453125 42.75 C117.453125 56.59521022113982, 117.453125 70.44042044227965, 117.453125 85.5 M117.453125 42.75 C117.453125 57.29555729622536, 117.453125 71.84111459245072, 117.453125 85.5 M117.453125 85.5 C29.84241207574169 85.5, -57.76830084851662 85.5, -117.453125 85.5 M117.453125 85.5 C24.58716850676032 85.5, -68.27878798647936 85.5, -117.453125 85.5 M-117.453125 85.5 C-117.453125 71.90736819179045, -117.453125 58.31473638358091, -117.453125 42.75 M-117.453125 85.5 C-117.453125 74.09321449993001, -117.453125 62.68642899986003, -117.453125 42.75" stroke="#9370DB" stroke-width="1.3" fill="none" stroke-dasharray="0 0"/></g><g class="label name" transform="translate(-30.3828125, -76.125)" style=""><foreignObject width="60.765625" height="24"><div xmlns="http://www.w3.org/1999/xhtml" style="display: table-cell; white-space: nowrap; line-height: 1.5; max-width: 157px; text-align: start;"><span class="nodeLabel"><p>Province</p></span></div></foreignObject></g><g class="label attribute-type" transform="translate(-104.953125, -33.375)" style=""><foreignObject width="33.046875" height="24"><div xmlns="http://www.w3.org/1999/xhtml" style="display: table-cell; white-space: nowrap; line-height: 1.5; max-width: 132px; text-align: start;"><span class="nodeLabel"><p>Guid</p></span></div></foreignObject></g><g class="label attribute-name" transform="translate(-39.578125, -33.375)" style=""><foreignObject width="74.140625" height="24"><div xmlns="http://www.w3.org/1999/xhtml" style="display: table-cell; white-space: nowrap; line-height: 1.5; max-width: 170px; text-align: start;"><span class="nodeLabel"><p>ProvinceId</p></span></div></foreignObject></g><g class="label attribute-keys" transform="translate(86.8125, -33.375)" style=""><foreignObject width="18.140625" height="24"><div xmlns="http://www.w3.org/1999/xhtml" style="display: table-cell; white-space: nowrap; line-height: 1.5; max-width: 121px; text-align: start;"><span class="nodeLabel"><p>PK</p></span></div></foreignObject></g><g class="label attribute-comment" transform="translate(129.953125, -33.375)" style=""><foreignObject width="0" height="0"><div xmlns="http://www.w3.org/1999/xhtml" style="display: table-cell; white-space: nowrap; line-height: 1.5; max-width: 100px; text-align: start;"><span class="nodeLabel"></span></div></foreignObject></g><g class="label attribute-type" transform="translate(-104.953125, 9.375)" style=""><foreignObject width="40.375" height="24"><div xmlns="http://www.w3.org/1999/xhtml" style="display: table-cell; white-space: nowrap; line-height: 1.5; max-width: 136px; text-align: start;"><span class="nodeLabel"><p>string</p></span></div></foreignObject></g><g class="label attribute-name" transform="translate(-39.578125, 9.375)" style=""><foreignObject width="101.390625" height="24"><div xmlns="http://www.w3.org/1999/xhtml" style="display: table-cell; white-space: nowrap; line-height: 1.5; max-width: 195px; text-align: start;"><span class="nodeLabel"><p>ProvinceName</p></span></div></foreignObject></g><g class="label attribute-keys" transform="translate(86.8125, 9.375)" style=""><foreignObject width="0" height="0"><div xmlns="http://www.w3.org/1999/xhtml" style="display: table-cell; white-space: nowrap; line-height: 1.5; max-width: 100px; text-align: start;"><span class="nodeLabel"></span></div></foreignObject></g><g class="label attribute-comment" transform="translate(129.953125, 9.375)" style=""><foreignObject width="0" height="0"><div xmlns="http://www.w3.org/1999/xhtml" style="display: table-cell; white-space: nowrap; line-height: 1.5; max-width: 100px; text-align: start;"><span class="nodeLabel"></span></div></foreignObject></g><g class="label attribute-type" transform="translate(-104.953125, 52.125)" style=""><foreignObject width="40.375" height="24"><div xmlns="http://www.w3.org/1999/xhtml" style="display: table-cell; white-space: nowrap; line-height: 1.5; max-width: 136px; text-align: start;"><span class="nodeLabel"><p>string</p></span></div></foreignObject></g><g class="label attribute-name" transform="translate(-39.578125, 52.125)" style=""><foreignObject width="96.5625" height="24"><div xmlns="http://www.w3.org/1999/xhtml" style="display: table-cell; white-space: nowrap; line-height: 1.5; max-width: 191px; text-align: start;"><span class="nodeLabel"><p>ProvinceCode</p></span></div></foreignObject></g><g class="label attribute-keys" transform="translate(86.8125, 52.125)" style=""><foreignObject width="0" height="0"><div xmlns="http://www.w3.org/1999/xhtml" style="display: table-cell; white-space: nowrap; line-height: 1.5; max-width: 100px; text-align: start;"><span class="nodeLabel"></span></div></foreignObject></g><g class="label attribute-comment" transform="translate(129.953125, 52.125)" style=""><foreignObject width="0" height="0"><div xmlns="http://www.w3.org/1999/xhtml" style="display: table-cell; white-space: nowrap; line-height: 1.5; max-width: 100px; text-align: start;"><span class="nodeLabel"></span></div></foreignObject></g><g class="divider"><path d="M-117.453125 -42.75 C-67.33941996785896 -42.75, -17.22571493571793 -42.75, 117.453125 -42.75 M-117.453125 -42.75 C-62.673184154503886 -42.75, -7.893243309007772 -42.75, 117.453125 -42.75" stroke="#9370DB" stroke-width="1.3" fill="none" stroke-dasharray="0 0"/></g><g class="divider"><path d="M-52.078125 -42.75 C-52.078125 -4.370405755610868, -52.078125 34.009188488778264, -52.078125 85.5 M-52.078125 -42.75 C-52.078125 3.596394735974968, -52.078125 49.942789471949936, -52.078125 85.5" stroke="#9370DB" stroke-width="1.3" fill="none" stroke-dasharray="0 0"/></g><g class="divider"><path d="M74.3125 -42.75 C74.3125 -16.5142255661135, 74.3125 9.721548867773002, 74.3125 85.5 M74.3125 -42.75 C74.3125 -11.711366373282786, 74.3125 19.327267253434428, 74.3125 85.5" stroke="#9370DB" stroke-width="1.3" fill="none" stroke-dasharray="0 0"/></g><g class="divider"><path d="M-117.453125 -42.75 C-47.358720194134776 -42.75, 22.73568461173045 -42.75, 117.453125 -42.75 M-117.453125 -42.75 C-54.935605880196505 -42.75, 7.58191323960699 -42.75, 117.453125 -42.75" stroke="#9370DB" stroke-width="1.3" fill="none" stroke-dasharray="0 0"/></g></g><g class="node default" id="entity-WaterManagementArea-1" transform="translate(361.87109375, 557.875)"><g style=""><path d="M-107.9921875 -106.875 L107.9921875 -106.875 L107.9921875 106.875 L-107.9921875 106.875" stroke="none" stroke-width="0" fill="#ECECFF"/><path d="M-107.9921875 -106.875 C-36.20107173089279 -106.875, 35.590044038214415 -106.875, 107.9921875 -106.875 M-107.9921875 -106.875 C-40.296039107741564 -106.875, 27.400109284516873 -106.875, 107.9921875 -106.875 M107.9921875 -106.875 C107.9921875 -54.19120808455255, 107.9921875 -1.507416169105099, 107.9921875 106.875 M107.9921875 -106.875 C107.9921875 -50.974883280020094, 107.9921875 4.925233439959811, 107.9921875 106.875 M107.9921875 106.875 C43.402929078240476 106.875, -21.18632934351905 106.875, -107.9921875 106.875 M107.9921875 106.875 C27.664455096888346 106.875, -52.66327730622331 106.875, -107.9921875 106.875 M-107.9921875 106.875 C-107.9921875 51.80487144534013, -107.9921875 -3.265257109319734, -107.9921875 -106.875 M-107.9921875 106.875 C-107.9921875 30.22441308632625, -107.9921875 -46.4261738273475, -107.9921875 -106.875" stroke="#9370DB" stroke-width="1.3" fill="none" stroke-dasharray="0 0"/></g><g style="" class="row-rect-odd"><path d="M-107.9921875 -64.125 L107.9921875 -64.125 L107.9921875 -21.375 L-107.9921875 -21.375" stroke="none" stroke-width="0" fill="hsl(240, 100%, 100%)"/><path d="M-107.9921875 -64.125 C-43.64348031490027 -64.125, 20.705226870199454 -64.125, 107.9921875 -64.125 M-107.9921875 -64.125 C-58.39738275402439 -64.125, -8.802578008048783 -64.125, 107.9921875 -64.125 M107.9921875 -64.125 C107.9921875 -48.34352030871233, 107.9921875 -32.56204061742466, 107.9921875 -21.375 M107.9921875 -64.125 C107.9921875 -54.702353369137, 107.9921875 -45.279706738274, 107.9921875 -21.375 M107.9921875 -21.375 C63.667036800963196 -21.375, 19.34188610192639 -21.375, -107.9921875 -21.375 M107.9921875 -21.375 C23.06958588020656 -21.375, -61.85301573958688 -21.375, -107.9921875 -21.375 M-107.9921875 -21.375 C-107.9921875 -38.16051634473381, -107.9921875 -54.946032689467614, -107.9921875 -64.125 M-107.9921875 -21.375 C-107.9921875 -31.601728592870963, -107.9921875 -41.828457185741925, -107.9921875 -64.125" stroke="#9370DB" stroke-width="1.3" fill="none" stroke-dasharray="0 0"/></g><g style="" class="row-rect-even"><path d="M-107.9921875 -21.375 L107.9921875 -21.375 L107.9921875 21.375 L-107.9921875 21.375" stroke="none" stroke-width="0" fill="hsl(240, 100%, 97.2745098039%)"/><path d="M-107.9921875 -21.375 C-57.340886859279145 -21.375, -6.68958621855829 -21.375, 107.9921875 -21.375 M-107.9921875 -21.375 C-32.27983989728108 -21.375, 43.43250770543784 -21.375, 107.9921875 -21.375 M107.9921875 -21.375 C107.9921875 -11.470458987311904, 107.9921875 -1.565917974623808, 107.9921875 21.375 M107.9921875 -21.375 C107.9921875 -4.741696961584555, 107.9921875 11.89160607683089, 107.9921875 21.375 M107.9921875 21.375 C46.78997471705832 21.375, -14.412238065883358 21.375, -107.9921875 21.375 M107.9921875 21.375 C54.624672795576465 21.375, 1.257158091152931 21.375, -107.9921875 21.375 M-107.9921875 21.375 C-107.9921875 6.43345417641134, -107.9921875 -8.50809164717732, -107.9921875 -21.375 M-107.9921875 21.375 C-107.9921875 5.54655653504917, -107.9921875 -10.28188692990166, -107.9921875 -21.375" stroke="#9370DB" stroke-width="1.3" fill="none" stroke-dasharray="0 0"/></g><g style="" class="row-rect-odd"><path d="M-107.9921875 21.375 L107.9921875 21.375 L107.9921875 64.125 L-107.9921875 64.125" stroke="none" stroke-width="0" fill="hsl(240, 100%, 100%)"/><path d="M-107.9921875 21.375 C-26.254744422091406 21.375, 55.48269865581719 21.375, 107.9921875 21.375 M-107.9921875 21.375 C-25.388044974523595 21.375, 57.21609755095281 21.375, 107.9921875 21.375 M107.9921875 21.375 C107.9921875 30.783173410944123, 107.9921875 40.191346821888246, 107.9921875 64.125 M107.9921875 21.375 C107.9921875 30.845337107564816, 107.9921875 40.31567421512963, 107.9921875 64.125 M107.9921875 64.125 C32.596765817436136 64.125, -42.79865586512773 64.125, -107.9921875 64.125 M107.9921875 64.125 C47.303208263785066 64.125, -13.385770972429867 64.125, -107.9921875 64.125 M-107.9921875 64.125 C-107.9921875 52.394654276857025, -107.9921875 40.66430855371405, -107.9921875 21.375 M-107.9921875 64.125 C-107.9921875 54.18081833904692, -107.9921875 44.23663667809384, -107.9921875 21.375" stroke="#9370DB" stroke-width="1.3" fill="none" stroke-dasharray="0 0"/></g><g style="" class="row-rect-even"><path d="M-107.9921875 64.125 L107.9921875 64.125 L107.9921875 106.875 L-107.9921875 106.875" stroke="none" stroke-width="0" fill="hsl(240, 100%, 97.2745098039%)"/><path d="M-107.9921875 64.125 C-59.694891560903955 64.125, -11.397595621807909 64.125, 107.9921875 64.125 M-107.9921875 64.125 C-43.90506488981346 64.125, 20.18205772037308 64.125, 107.9921875 64.125 M107.9921875 64.125 C107.9921875 73.46902761914143, 107.9921875 82.81305523828284, 107.9921875 106.875 M107.9921875 64.125 C107.9921875 79.28821315558876, 107.9921875 94.45142631117753, 107.9921875 106.875 M107.9921875 106.875 C45.0347436631383 106.875, -17.9227001737234 106.875, -107.9921875 106.875 M107.9921875 106.875 C51.08939565015845 106.875, -5.813396199683098 106.875, -107.9921875 106.875 M-107.9921875 106.875 C-107.9921875 92.6999777626184, -107.9921875 78.5249555252368, -107.9921875 64.125 M-107.9921875 106.875 C-107.9921875 93.78302109175651, -107.9921875 80.69104218351302, -107.9921875 64.125" stroke="#9370DB" stroke-width="1.3" fill="none" stroke-dasharray="0 0"/></g><g class="label name" transform="translate(-82.9921875, -97.5)" style=""><foreignObject width="165.984375" height="24"><div xmlns="http://www.w3.org/1999/xhtml" style="display: table-cell; white-space: nowrap; line-height: 1.5; max-width: 252px; text-align: start;"><span class="nodeLabel"><p>WaterManagementArea</p></span></div></foreignObject></g><g class="label attribute-type" transform="translate(-95.4921875, -54.75)" style=""><foreignObject width="33.046875" height="24"><div xmlns="http://www.w3.org/1999/xhtml" style="display: table-cell; white-space: nowrap; line-height: 1.5; max-width: 132px; text-align: start;"><span class="nodeLabel"><p>Guid</p></span></div></foreignObject></g><g class="label attribute-name" transform="translate(-27.9453125, -54.75)" style=""><foreignObject width="48.6875" height="24"><div xmlns="http://www.w3.org/1999/xhtml" style="display: table-cell; white-space: nowrap; line-height: 1.5; max-width: 148px; text-align: start;"><span class="nodeLabel"><p>WmaId</p></span></div></foreignObject></g><g class="label attribute-keys" transform="translate(75.1796875, -54.75)" style=""><foreignObject width="18.140625" height="24"><div xmlns="http://www.w3.org/1999/xhtml" style="display: table-cell; white-space: nowrap; line-height: 1.5; max-width: 121px; text-align: start;"><span class="nodeLabel"><p>PK</p></span></div></foreignObject></g><g class="label attribute-comment" transform="translate(120.4921875, -54.75)" style=""><foreignObject width="0" height="0"><div xmlns="http://www.w3.org/1999/xhtml" style="display: table-cell; white-space: nowrap; line-height: 1.5; max-width: 100px; text-align: start;"><span class="nodeLabel"></span></div></foreignObject></g><g class="label attribute-type" transform="translate(-95.4921875, -12)" style=""><foreignObject width="40.375" height="24"><div xmlns="http://www.w3.org/1999/xhtml" style="display: table-cell; white-space: nowrap; line-height: 1.5; max-width: 136px; text-align: start;"><span class="nodeLabel"><p>string</p></span></div></foreignObject></g><g class="label attribute-name" transform="translate(-27.9453125, -12)" style=""><foreignObject width="75.953125" height="24"><div xmlns="http://www.w3.org/1999/xhtml" style="display: table-cell; white-space: nowrap; line-height: 1.5; max-width: 173px; text-align: start;"><span class="nodeLabel"><p>WmaName</p></span></div></foreignObject></g><g class="label attribute-keys" transform="translate(75.1796875, -12)" style=""><foreignObject width="0" height="0"><div xmlns="http://www.w3.org/1999/xhtml" style="display: table-cell; white-space: nowrap; line-height: 1.5; max-width: 100px; text-align: start;"><span class="nodeLabel"></span></div></foreignObject></g><g class="label attribute-comment" transform="translate(120.4921875, -12)" style=""><foreignObject width="0" height="0"><div xmlns="http://www.w3.org/1999/xhtml" style="display: table-cell; white-space: nowrap; line-height: 1.5; max-width: 100px; text-align: start;"><span class="nodeLabel"></span></div></foreignObject></g><g class="label attribute-type" transform="translate(-95.4921875, 30.75)" style=""><foreignObject width="40.375" height="24"><div xmlns="http://www.w3.org/1999/xhtml" style="display: table-cell; white-space: nowrap; line-height: 1.5; max-width: 136px; text-align: start;"><span class="nodeLabel"><p>string</p></span></div></foreignObject></g><g class="label attribute-name" transform="translate(-27.9453125, 30.75)" style=""><foreignObject width="71.125" height="24"><div xmlns="http://www.w3.org/1999/xhtml" style="display: table-cell; white-space: nowrap; line-height: 1.5; max-width: 168px; text-align: start;"><span class="nodeLabel"><p>WmaCode</p></span></div></foreignObject></g><g class="label attribute-keys" transform="translate(75.1796875, 30.75)" style=""><foreignObject width="0" height="0"><div xmlns="http://www.w3.org/1999/xhtml" style="display: table-cell; white-space: nowrap; line-height: 1.5; max-width: 100px; text-align: start;"><span class="nodeLabel"></span></div></foreignObject></g><g class="label attribute-comment" transform="translate(120.4921875, 30.75)" style=""><foreignObject width="0" height="0"><div xmlns="http://www.w3.org/1999/xhtml" style="display: table-cell; white-space: nowrap; line-height: 1.5; max-width: 100px; text-align: start;"><span class="nodeLabel"></span></div></foreignObject></g><g class="label attribute-type" transform="translate(-95.4921875, 73.5)" style=""><foreignObject width="33.046875" height="24"><div xmlns="http://www.w3.org/1999/xhtml" style="display: table-cell; white-space: nowrap; line-height: 1.5; max-width: 132px; text-align: start;"><span class="nodeLabel"><p>Guid</p></span></div></foreignObject></g><g class="label attribute-name" transform="translate(-27.9453125, 73.5)" style=""><foreignObject width="74.140625" height="24"><div xmlns="http://www.w3.org/1999/xhtml" style="display: table-cell; white-space: nowrap; line-height: 1.5; max-width: 170px; text-align: start;"><span class="nodeLabel"><p>ProvinceId</p></span></div></foreignObject></g><g class="label attribute-keys" transform="translate(75.1796875, 73.5)" style=""><foreignObject width="17.609375" height="24"><div xmlns="http://www.w3.org/1999/xhtml" style="display: table-cell; white-space: nowrap; line-height: 1.5; max-width: 121px; text-align: start;"><span class="nodeLabel"><p>FK</p></span></div></foreignObject></g><g class="label attribute-comment" transform="translate(120.4921875, 73.5)" style=""><foreignObject width="0" height="0"><div xmlns="http://www.w3.org/1999/xhtml" style="display: table-cell; white-space: nowrap; line-height: 1.5; max-width: 100px; text-align: start;"><span class="nodeLabel"></span></div></foreignObject></g><g class="divider"><path d="M-107.9921875 -64.125 C-42.487624393722115 -64.125, 23.01693871255577 -64.125, 107.9921875 -64.125 M-107.9921875 -64.125 C-46.49339882243592 -64.125, 15.005389855128158 -64.125, 107.9921875 -64.125" stroke="#9370DB" stroke-width="1.3" fill="none" stroke-dasharray="0 0"/></g><g class="divider"><path d="M-40.4453125 -64.125 C-40.4453125 -12.392190479715104, -40.4453125 39.34061904056979, -40.4453125 106.875 M-40.4453125 -64.125 C-40.4453125 -6.205917835277063, -40.4453125 51.713164329445874, -40.4453125 106.875" stroke="#9370DB" stroke-width="1.3" fill="none" stroke-dasharray="0 0"/></g><g class="divider"><path d="M62.6796875 -64.125 C62.6796875 -4.6672888999073265, 62.6796875 54.79042220018535, 62.6796875 106.875 M62.6796875 -64.125 C62.6796875 -28.696000678257874, 62.6796875 6.732998643484251, 62.6796875 106.875" stroke="#9370DB" stroke-width="1.3" fill="none" stroke-dasharray="0 0"/></g><g class="divider"><path d="M-107.9921875 -64.125 C-29.456060173258123 -64.125, 49.08006715348375 -64.125, 107.9921875 -64.125 M-107.9921875 -64.125 C-56.88814334730568 -64.125, -5.784099194611358 -64.125, 107.9921875 -64.125" stroke="#9370DB" stroke-width="1.3" fill="none" stroke-dasharray="0 0"/></g></g><g class="node default" id="entity-OrganisationalUnit-2" transform="translate(247.1640625, 894)"><g style=""><path d="M-239.1640625 -128.25 L239.1640625 -128.25 L239.1640625 128.25 L-239.1640625 128.25" stroke="none" stroke-width="0" fill="#ECECFF"/><path d="M-239.1640625 -128.25 C-65.7211418242955 -128.25, 107.721778851409 -128.25, 239.1640625 -128.25 M-239.1640625 -128.25 C-116.13817561081719 -128.25, 6.887711278365629 -128.25, 239.1640625 -128.25 M239.1640625 -128.25 C239.1640625 -67.00814344814377, 239.1640625 -5.766286896287539, 239.1640625 128.25 M239.1640625 -128.25 C239.1640625 -31.834200713203572, 239.1640625 64.58159857359286, 239.1640625 128.25 M239.1640625 128.25 C125.36977036970546 128.25, 11.575478239410927 128.25, -239.1640625 128.25 M239.1640625 128.25 C96.44895080517978 128.25, -46.266160889640446 128.25, -239.1640625 128.25 M-239.1640625 128.25 C-239.1640625 51.62397855167873, -239.1640625 -25.002042896642536, -239.1640625 -128.25 M-239.1640625 128.25 C-239.1640625 28.310168837973734, -239.1640625 -71.62966232405253, -239.1640625 -128.25" stroke="#9370DB" stroke-width="1.3" fill="none" stroke-dasharray="0 0"/></g><g style="" class="row-rect-odd"><path d="M-239.1640625 -85.5 L239.1640625 -85.5 L239.1640625 -42.75 L-239.1640625 -42.75" stroke="none" stroke-width="0" fill="hsl(240, 100%, 100%)"/><path d="M-239.1640625 -85.5 C-65.3888642209495 -85.5, 108.386334058101 -85.5, 239.1640625 -85.5 M-239.1640625 -85.5 C-85.27240260519571 -85.5, 68.61925728960858 -85.5, 239.1640625 -85.5 M239.1640625 -85.5 C239.1640625 -71.06792577717975, 239.1640625 -56.6358515543595, 239.1640625 -42.75 M239.1640625 -85.5 C239.1640625 -70.94903904332101, 239.1640625 -56.39807808664203, 239.1640625 -42.75 M239.1640625 -42.75 C88.22396721746264 -42.75, -62.71612806507471 -42.75, -239.1640625 -42.75 M239.1640625 -42.75 C109.17896005547024 -42.75, -20.806142389059517 -42.75, -239.1640625 -42.75 M-239.1640625 -42.75 C-239.1640625 -53.52450642418827, -239.1640625 -64.29901284837653, -239.1640625 -85.5 M-239.1640625 -42.75 C-239.1640625 -51.94381917432433, -239.1640625 -61.137638348648665, -239.1640625 -85.5" stroke="#9370DB" stroke-width="1.3" fill="none" stroke-dasharray="0 0"/></g><g style="" class="row-rect-even"><path d="M-239.1640625 -42.75 L239.1640625 -42.75 L239.1640625 0 L-239.1640625 0" stroke="none" stroke-width="0" fill="hsl(240, 100%, 97.2745098039%)"/><path d="M-239.1640625 -42.75 C-87.15162966383488 -42.75, 64.86080317233024 -42.75, 239.1640625 -42.75 M-239.1640625 -42.75 C-115.82520291143514 -42.75, 7.513656677129717 -42.75, 239.1640625 -42.75 M239.1640625 -42.75 C239.1640625 -32.03541697521143, 239.1640625 -21.320833950422863, 239.1640625 0 M239.1640625 -42.75 C239.1640625 -33.904820666465575, 239.1640625 -25.059641332931147, 239.1640625 0 M239.1640625 0 C86.0498453337284 0, -67.0643718325432 0, -239.1640625 0 M239.1640625 0 C55.30909650512746 0, -128.5458694897451 0, -239.1640625 0 M-239.1640625 0 C-239.1640625 -12.376763158956553, -239.1640625 -24.753526317913106, -239.1640625 -42.75 M-239.1640625 0 C-239.1640625 -13.236332642544939, -239.1640625 -26.472665285089878, -239.1640625 -42.75" stroke="#9370DB" stroke-width="1.3" fill="none" stroke-dasharray="0 0"/></g><g style="" class="row-rect-odd"><path d="M-239.1640625 0 L239.1640625 0 L239.1640625 42.75 L-239.1640625 42.75" stroke="none" stroke-width="0" fill="hsl(240, 100%, 100%)"/><path d="M-239.1640625 0 C-126.97195310542544 0, -14.779843710850884 0, 239.1640625 0 M-239.1640625 0 C-95.83509131261707 0, 47.49387987476587 0, 239.1640625 0 M239.1640625 0 C239.1640625 11.599126589609783, 239.1640625 23.198253179219567, 239.1640625 42.75 M239.1640625 0 C239.1640625 13.607345474675343, 239.1640625 27.214690949350686, 239.1640625 42.75 M239.1640625 42.75 C85.04013463537552 42.75, -69.08379322924895 42.75, -239.1640625 42.75 M239.1640625 42.75 C108.79452084808202 42.75, -21.57502080383597 42.75, -239.1640625 42.75 M-239.1640625 42.75 C-239.1640625 29.757397937740166, -239.1640625 16.76479587548033, -239.1640625 0 M-239.1640625 42.75 C-239.1640625 33.52200444430716, -239.1640625 24.29400888861431, -239.1640625 0" stroke="#9370DB" stroke-width="1.3" fill="none" stroke-dasharray="0 0"/></g><g style="" class="row-rect-even"><path d="M-239.1640625 42.75 L239.1640625 42.75 L239.1640625 85.5 L-239.1640625 85.5" stroke="none" stroke-width="0" fill="hsl(240, 100%, 97.2745098039%)"/><path d="M-239.1640625 42.75 C-124.10659821799585 42.75, -9.049133935991705 42.75, 239.1640625 42.75 M-239.1640625 42.75 C-81.65956880781096 42.75, 75.84492488437809 42.75, 239.1640625 42.75 M239.1640625 42.75 C239.1640625 52.10952107174883, 239.1640625 61.46904214349766, 239.1640625 85.5 M239.1640625 42.75 C239.1640625 52.10398275962879, 239.1640625 61.45796551925759, 239.1640625 85.5 M239.1640625 85.5 C138.67444764451596 85.5, 38.18483278903196 85.5, -239.1640625 85.5 M239.1640625 85.5 C81.34675394222322 85.5, -76.47055461555357 85.5, -239.1640625 85.5 M-239.1640625 85.5 C-239.1640625 76.09943101133402, -239.1640625 66.69886202266802, -239.1640625 42.75 M-239.1640625 85.5 C-239.1640625 72.61083814746007, -239.1640625 59.72167629492015, -239.1640625 42.75" stroke="#9370DB" stroke-width="1.3" fill="none" stroke-dasharray="0 0"/></g><g style="" class="row-rect-odd"><path d="M-239.1640625 85.5 L239.1640625 85.5 L239.1640625 128.25 L-239.1640625 128.25" stroke="none" stroke-width="0" fill="hsl(240, 100%, 100%)"/><path d="M-239.1640625 85.5 C-57.00552990249406 85.5, 125.15300269501188 85.5, 239.1640625 85.5 M-239.1640625 85.5 C-53.8258996721915 85.5, 131.512263155617 85.5, 239.1640625 85.5 M239.1640625 85.5 C239.1640625 100.66788023554162, 239.1640625 115.83576047108325, 239.1640625 128.25 M239.1640625 85.5 C239.1640625 96.3983070722156, 239.1640625 107.2966141444312, 239.1640625 128.25 M239.1640625 128.25 C81.27187410778657 128.25, -76.62031428442685 128.25, -239.1640625 128.25 M239.1640625 128.25 C142.93013133935557 128.25, 46.69620017871111 128.25, -239.1640625 128.25 M-239.1640625 128.25 C-239.1640625 118.5104322928169, -239.1640625 108.77086458563379, -239.1640625 85.5 M-239.1640625 128.25 C-239.1640625 118.29134051110162, -239.1640625 108.33268102220325, -239.1640625 85.5" stroke="#9370DB" stroke-width="1.3" fill="none" stroke-dasharray="0 0"/></g><g class="label name" transform="translate(-66.5078125, -118.875)" style=""><foreignObject width="133.015625" height="24"><div xmlns="http://www.w3.org/1999/xhtml" style="display: table-cell; white-space: nowrap; line-height: 1.5; max-width: 222px; text-align: start;"><span class="nodeLabel"><p>OrganisationalUnit</p></span></div></foreignObject></g><g class="label attribute-type" transform="translate(-226.6640625, -76.125)" style=""><foreignObject width="33.046875" height="24"><div xmlns="http://www.w3.org/1999/xhtml" style="display: table-cell; white-space: nowrap; line-height: 1.5; max-width: 132px; text-align: start;"><span class="nodeLabel"><p>Guid</p></span></div></foreignObject></g><g class="label attribute-name" transform="translate(-161.2890625, -76.125)" style=""><foreignObject width="68.421875" height="24"><div xmlns="http://www.w3.org/1999/xhtml" style="display: table-cell; white-space: nowrap; line-height: 1.5; max-width: 166px; text-align: start;"><span class="nodeLabel"><p>OrgUnitId</p></span></div></foreignObject></g><g class="label attribute-keys" transform="translate(-62.1484375, -76.125)" style=""><foreignObject width="18.140625" height="24"><div xmlns="http://www.w3.org/1999/xhtml" style="display: table-cell; white-space: nowrap; line-height: 1.5; max-width: 121px; text-align: start;"><span class="nodeLabel"><p>PK</p></span></div></foreignObject></g><g class="label attribute-comment" transform="translate(-19.0078125, -76.125)" style=""><foreignObject width="0" height="0"><div xmlns="http://www.w3.org/1999/xhtml" style="display: table-cell; white-space: nowrap; line-height: 1.5; max-width: 100px; text-align: start;"><span class="nodeLabel"></span></div></foreignObject></g><g class="label attribute-type" transform="translate(-226.6640625, -33.375)" style=""><foreignObject width="40.375" height="24"><div xmlns="http://www.w3.org/1999/xhtml" style="display: table-cell; white-space: nowrap; line-height: 1.5; max-width: 136px; text-align: start;"><span class="nodeLabel"><p>string</p></span></div></foreignObject></g><g class="label attribute-name" transform="translate(-161.2890625, -33.375)" style=""><foreignObject width="40.625" height="24"><div xmlns="http://www.w3.org/1999/xhtml" style="display: table-cell; white-space: nowrap; line-height: 1.5; max-width: 138px; text-align: start;"><span class="nodeLabel"><p>Name</p></span></div></foreignObject></g><g class="label attribute-keys" transform="translate(-62.1484375, -33.375)" style=""><foreignObject width="0" height="0"><div xmlns="http://www.w3.org/1999/xhtml" style="display: table-cell; white-space: nowrap; line-height: 1.5; max-width: 100px; text-align: start;"><span class="nodeLabel"></span></div></foreignObject></g><g class="label attribute-comment" transform="translate(-19.0078125, -33.375)" style=""><foreignObject width="0" height="0"><div xmlns="http://www.w3.org/1999/xhtml" style="display: table-cell; white-space: nowrap; line-height: 1.5; max-width: 100px; text-align: start;"><span class="nodeLabel"></span></div></foreignObject></g><g class="label attribute-type" transform="translate(-226.6640625, 9.375)" style=""><foreignObject width="40.375" height="24"><div xmlns="http://www.w3.org/1999/xhtml" style="display: table-cell; white-space: nowrap; line-height: 1.5; max-width: 136px; text-align: start;"><span class="nodeLabel"><p>string</p></span></div></foreignObject></g><g class="label attribute-name" transform="translate(-161.2890625, 9.375)" style=""><foreignObject width="32.984375" height="24"><div xmlns="http://www.w3.org/1999/xhtml" style="display: table-cell; white-space: nowrap; line-height: 1.5; max-width: 132px; text-align: start;"><span class="nodeLabel"><p>Type</p></span></div></foreignObject></g><g class="label attribute-keys" transform="translate(-62.1484375, 9.375)" style=""><foreignObject width="0" height="0"><div xmlns="http://www.w3.org/1999/xhtml" style="display: table-cell; white-space: nowrap; line-height: 1.5; max-width: 100px; text-align: start;"><span class="nodeLabel"></span></div></foreignObject></g><g class="label attribute-comment" transform="translate(-19.0078125, 9.375)" style=""><foreignObject width="245.671875" height="24"><div xmlns="http://www.w3.org/1999/xhtml" style="display: table-cell; white-space: nowrap; line-height: 1.5; max-width: 325px; text-align: start;"><span class="nodeLabel"><p>National|Provincial|Regional|CMA</p></span></div></foreignObject></g><g class="label attribute-type" transform="translate(-226.6640625, 52.125)" style=""><foreignObject width="33.046875" height="24"><div xmlns="http://www.w3.org/1999/xhtml" style="display: table-cell; white-space: nowrap; line-height: 1.5; max-width: 132px; text-align: start;"><span class="nodeLabel"><p>Guid</p></span></div></foreignObject></g><g class="label attribute-name" transform="translate(-161.2890625, 52.125)" style=""><foreignObject width="74.140625" height="24"><div xmlns="http://www.w3.org/1999/xhtml" style="display: table-cell; white-space: nowrap; line-height: 1.5; max-width: 170px; text-align: start;"><span class="nodeLabel"><p>ProvinceId</p></span></div></foreignObject></g><g class="label attribute-keys" transform="translate(-62.1484375, 52.125)" style=""><foreignObject width="17.609375" height="24"><div xmlns="http://www.w3.org/1999/xhtml" style="display: table-cell; white-space: nowrap; line-height: 1.5; max-width: 121px; text-align: start;"><span class="nodeLabel"><p>FK</p></span></div></foreignObject></g><g class="label attribute-comment" transform="translate(-19.0078125, 52.125)" style=""><foreignObject width="0" height="0"><div xmlns="http://www.w3.org/1999/xhtml" style="display: table-cell; white-space: nowrap; line-height: 1.5; max-width: 100px; text-align: start;"><span class="nodeLabel"></span></div></foreignObject></g><g class="label attribute-type" transform="translate(-226.6640625, 94.875)" style=""><foreignObject width="33.046875" height="24"><div xmlns="http://www.w3.org/1999/xhtml" style="display: table-cell; white-space: nowrap; line-height: 1.5; max-width: 132px; text-align: start;"><span class="nodeLabel"><p>Guid</p></span></div></foreignObject></g><g class="label attribute-name" transform="translate(-161.2890625, 94.875)" style=""><foreignObject width="48.6875" height="24"><div xmlns="http://www.w3.org/1999/xhtml" style="display: table-cell; white-space: nowrap; line-height: 1.5; max-width: 148px; text-align: start;"><span class="nodeLabel"><p>WmaId</p></span></div></foreignObject></g><g class="label attribute-keys" transform="translate(-62.1484375, 94.875)" style=""><foreignObject width="17.609375" height="24"><div xmlns="http://www.w3.org/1999/xhtml" style="display: table-cell; white-space: nowrap; line-height: 1.5; max-width: 121px; text-align: start;"><span class="nodeLabel"><p>FK</p></span></div></foreignObject></g><g class="label attribute-comment" transform="translate(-19.0078125, 94.875)" style=""><foreignObject width="0" height="0"><div xmlns="http://www.w3.org/1999/xhtml" style="display: table-cell; white-space: nowrap; line-height: 1.5; max-width: 100px; text-align: start;"><span class="nodeLabel"></span></div></foreignObject></g><g class="divider"><path d="M-239.1640625 -85.5 C-91.87465938558236 -85.5, 55.414743728835276 -85.5, 239.1640625 -85.5 M-239.1640625 -85.5 C-77.98260023713848 -85.5, 83.19886202572303 -85.5, 239.1640625 -85.5" stroke="#9370DB" stroke-width="1.3" fill="none" stroke-dasharray="0 0"/></g><g class="divider"><path d="M-173.7890625 -85.5 C-173.7890625 -27.072180704331025, -173.7890625 31.35563859133795, -173.7890625 128.25 M-173.7890625 -85.5 C-173.7890625 -31.66300700485104, -173.7890625 22.173985990297922, -173.7890625 128.25" stroke="#9370DB" stroke-width="1.3" fill="none" stroke-dasharray="0 0"/></g><g class="divider"><path d="M-74.6484375 -85.5 C-74.6484375 -19.22088068782095, -74.6484375 47.0582386243581, -74.6484375 128.25 M-74.6484375 -85.5 C-74.6484375 -15.853658364058603, -74.6484375 53.792683271882794, -74.6484375 128.25" stroke="#9370DB" stroke-width="1.3" fill="none" stroke-dasharray="0 0"/></g><g class="divider"><path d="M-31.5078125 -85.5 C-31.5078125 -28.783749131945683, -31.5078125 27.932501736108634, -31.5078125 128.25 M-31.5078125 -85.5 C-31.5078125 -9.155122546313493, -31.5078125 67.18975490737301, -31.5078125 128.25" stroke="#9370DB" stroke-width="1.3" fill="none" stroke-dasharray="0 0"/></g><g class="divider"><path d="M-239.1640625 -85.5 C-120.49382985681851 -85.5, -1.823597213637015 -85.5, 239.1640625 -85.5 M-239.1640625 -85.5 C-84.49870280188944 -85.5, 70.16665689622113 -85.5, 239.1640625 -85.5" stroke="#9370DB" stroke-width="1.3" fill="none" stroke-dasharray="0 0"/></g></g><g class="node default" id="entity-Address-3" transform="translate(687.03125, 179)"><g style=""><path d="M-182.4140625 -171 L182.4140625 -171 L182.4140625 171 L-182.4140625 171" stroke="none" stroke-width="0" fill="#ECECFF"/><path d="M-182.4140625 -171 C-66.89075956731054 -171, 48.63254336537892 -171, 182.4140625 -171 M-182.4140625 -171 C-69.50538542371763 -171, 43.40329165256475 -171, 182.4140625 -171 M182.4140625 -171 C182.4140625 -52.650867586556316, 182.4140625 65.69826482688737, 182.4140625 171 M182.4140625 -171 C182.4140625 -76.95581724227327, 182.4140625 17.08836551545346, 182.4140625 171 M182.4140625 171 C81.77536628717915 171, -18.863329925641693 171, -182.4140625 171 M182.4140625 171 C54.45526302308048 171, -73.50353645383905 171, -182.4140625 171 M-182.4140625 171 C-182.4140625 47.26237927527684, -182.4140625 -76.47524144944632, -182.4140625 -171 M-182.4140625 171 C-182.4140625 80.28957163938715, -182.4140625 -10.420856721225704, -182.4140625 -171" stroke="#9370DB" stroke-width="1.3" fill="none" stroke-dasharray="0 0"/></g><g style="" class="row-rect-odd"><path d="M-182.4140625 -128.25 L182.4140625 -128.25 L182.4140625 -85.5 L-182.4140625 -85.5" stroke="none" stroke-width="0" fill="hsl(240, 100%, 100%)"/><path d="M-182.4140625 -128.25 C-78.97769554288206 -128.25, 24.45867141423588 -128.25, 182.4140625 -128.25 M-182.4140625 -128.25 C-38.70914893616106 -128.25, 104.99576462767789 -128.25, 182.4140625 -128.25 M182.4140625 -128.25 C182.4140625 -115.89050798839415, 182.4140625 -103.53101597678828, 182.4140625 -85.5 M182.4140625 -128.25 C182.4140625 -111.53739647654812, 182.4140625 -94.82479295309625, 182.4140625 -85.5 M182.4140625 -85.5 C78.21833165792872 -85.5, -25.97739918414257 -85.5, -182.4140625 -85.5 M182.4140625 -85.5 C86.21462528113854 -85.5, -9.984811937722924 -85.5, -182.4140625 -85.5 M-182.4140625 -85.5 C-182.4140625 -100.7869683445395, -182.4140625 -116.073936689079, -182.4140625 -128.25 M-182.4140625 -85.5 C-182.4140625 -97.82655113329729, -182.4140625 -110.15310226659457, -182.4140625 -128.25" stroke="#9370DB" stroke-width="1.3" fill="none" stroke-dasharray="0 0"/></g><g style="" class="row-rect-even"><path d="M-182.4140625 -85.5 L182.4140625 -85.5 L182.4140625 -42.75 L-182.4140625 -42.75" stroke="none" stroke-width="0" fill="hsl(240, 100%, 97.2745098039%)"/><path d="M-182.4140625 -85.5 C-76.00937082809483 -85.5, 30.39532084381034 -85.5, 182.4140625 -85.5 M-182.4140625 -85.5 C-93.94520822650632 -85.5, -5.476353953012648 -85.5, 182.4140625 -85.5 M182.4140625 -85.5 C182.4140625 -69.24336958163549, 182.4140625 -52.986739163270975, 182.4140625 -42.75 M182.4140625 -85.5 C182.4140625 -70.1935211553624, 182.4140625 -54.88704231072482, 182.4140625 -42.75 M182.4140625 -42.75 C94.88154597176106 -42.75, 7.349029443522113 -42.75, -182.4140625 -42.75 M182.4140625 -42.75 C61.444433082071356 -42.75, -59.52519633585729 -42.75, -182.4140625 -42.75 M-182.4140625 -42.75 C-182.4140625 -59.52631878095498, -182.4140625 -76.30263756190996, -182.4140625 -85.5 M-182.4140625 -42.75 C-182.4140625 -58.49177313780288, -182.4140625 -74.23354627560576, -182.4140625 -85.5" stroke="#9370DB" stroke-width="1.3" fill="none" stroke-dasharray="0 0"/></g><g style="" class="row-rect-odd"><path d="M-182.4140625 -42.75 L182.4140625 -42.75 L182.4140625 0 L-182.4140625 0" stroke="none" stroke-width="0" fill="hsl(240, 100%, 100%)"/><path d="M-182.4140625 -42.75 C-108.40338056582436 -42.75, -34.39269863164873 -42.75, 182.4140625 -42.75 M-182.4140625 -42.75 C-78.14916072863015 -42.75, 26.1157410427397 -42.75, 182.4140625 -42.75 M182.4140625 -42.75 C182.4140625 -32.21844081875997, 182.4140625 -21.68688163751994, 182.4140625 0 M182.4140625 -42.75 C182.4140625 -31.65773168945506, 182.4140625 -20.565463378910117, 182.4140625 0 M182.4140625 0 C67.85282460964349 0, -46.70841328071302 0, -182.4140625 0 M182.4140625 0 C86.16854456861934 0, -10.076973362761322 0, -182.4140625 0 M-182.4140625 0 C-182.4140625 -11.882169333445274, -182.4140625 -23.76433866689055, -182.4140625 -42.75 M-182.4140625 0 C-182.4140625 -9.91728481363967, -182.4140625 -19.83456962727934, -182.4140625 -42.75" stroke="#9370DB" stroke-width="1.3" fill="none" stroke-dasharray="0 0"/></g><g style="" class="row-rect-even"><path d="M-182.4140625 0 L182.4140625 0 L182.4140625 42.75 L-182.4140625 42.75" stroke="none" stroke-width="0" fill="hsl(240, 100%, 97.2745098039%)"/><path d="M-182.4140625 0 C-101.6033752195505 0, -20.792687939101 0, 182.4140625 0 M-182.4140625 0 C-102.72091245804216 0, -23.02776241608433 0, 182.4140625 0 M182.4140625 0 C182.4140625 16.735897178970863, 182.4140625 33.471794357941725, 182.4140625 42.75 M182.4140625 0 C182.4140625 9.307253976546841, 182.4140625 18.614507953093682, 182.4140625 42.75 M182.4140625 42.75 C94.63230484092229 42.75, 6.850547181844576 42.75, -182.4140625 42.75 M182.4140625 42.75 C78.43635575192168 42.75, -25.541350996156638 42.75, -182.4140625 42.75 M-182.4140625 42.75 C-182.4140625 28.63838323981329, -182.4140625 14.52676647962658, -182.4140625 0 M-182.4140625 42.75 C-182.4140625 32.83951187652916, -182.4140625 22.929023753058317, -182.4140625 0" stroke="#9370DB" stroke-width="1.3" fill="none" stroke-dasharray="0 0"/></g><g style="" class="row-rect-odd"><path d="M-182.4140625 42.75 L182.4140625 42.75 L182.4140625 85.5 L-182.4140625 85.5" stroke="none" stroke-width="0" fill="hsl(240, 100%, 100%)"/><path d="M-182.4140625 42.75 C-37.00098683652132 42.75, 108.41208882695736 42.75, 182.4140625 42.75 M-182.4140625 42.75 C-49.216242911834 42.75, 83.981576676332 42.75, 182.4140625 42.75 M182.4140625 42.75 C182.4140625 59.74688540155754, 182.4140625 76.74377080311508, 182.4140625 85.5 M182.4140625 42.75 C182.4140625 57.748354102031975, 182.4140625 72.74670820406395, 182.4140625 85.5 M182.4140625 85.5 C73.76394640588464 85.5, -34.88616968823072 85.5, -182.4140625 85.5 M182.4140625 85.5 C44.90029548734768 85.5, -92.61347152530465 85.5, -182.4140625 85.5 M-182.4140625 85.5 C-182.4140625 71.28270042424393, -182.4140625 57.06540084848784, -182.4140625 42.75 M-182.4140625 85.5 C-182.4140625 73.88865029060244, -182.4140625 62.277300581204884, -182.4140625 42.75" stroke="#9370DB" stroke-width="1.3" fill="none" stroke-dasharray="0 0"/></g><g style="" class="row-rect-even"><path d="M-182.4140625 85.5 L182.4140625 85.5 L182.4140625 128.25 L-182.4140625 128.25" stroke="none" stroke-width="0" fill="hsl(240, 100%, 97.2745098039%)"/><path d="M-182.4140625 85.5 C-43.76589278108165 85.5, 94.8822769378367 85.5, 182.4140625 85.5 M-182.4140625 85.5 C-77.24056019797703 85.5, 27.932942104045935 85.5, 182.4140625 85.5 M182.4140625 85.5 C182.4140625 95.6436809530463, 182.4140625 105.7873619060926, 182.4140625 128.25 M182.4140625 85.5 C182.4140625 96.0009876830484, 182.4140625 106.50197536609677, 182.4140625 128.25 M182.4140625 128.25 C40.12609368235175 128.25, -102.1618751352965 128.25, -182.4140625 128.25 M182.4140625 128.25 C55.700631097710286 128.25, -71.01280030457943 128.25, -182.4140625 128.25 M-182.4140625 128.25 C-182.4140625 117.46908047726015, -182.4140625 106.6881609545203, -182.4140625 85.5 M-182.4140625 128.25 C-182.4140625 117.5090365486785, -182.4140625 106.76807309735699, -182.4140625 85.5" stroke="#9370DB" stroke-width="1.3" fill="none" stroke-dasharray="0 0"/></g><g style="" class="row-rect-odd"><path d="M-182.4140625 128.25 L182.4140625 128.25 L182.4140625 171 L-182.4140625 171" stroke="none" stroke-width="0" fill="hsl(240, 100%, 100%)"/><path d="M-182.4140625 128.25 C-71.33984605741973 128.25, 39.73437038516053 128.25, 182.4140625 128.25 M-182.4140625 128.25 C-64.61710361416425 128.25, 53.1798552716715 128.25, 182.4140625 128.25 M182.4140625 128.25 C182.4140625 144.29312604586588, 182.4140625 160.33625209173172, 182.4140625 171 M182.4140625 128.25 C182.4140625 144.73258007476522, 182.4140625 161.21516014953045, 182.4140625 171 M182.4140625 171 C107.7975230667114 171, 33.18098363342281 171, -182.4140625 171 M182.4140625 171 C57.054840575132346 171, -68.30438134973531 171, -182.4140625 171 M-182.4140625 171 C-182.4140625 154.30805783565415, -182.4140625 137.6161156713083, -182.4140625 128.25 M-182.4140625 171 C-182.4140625 159.71473234600543, -182.4140625 148.42946469201087, -182.4140625 128.25" stroke="#9370DB" stroke-width="1.3" fill="none" stroke-dasharray="0 0"/></g><g class="label name" transform="translate(-27.5859375, -161.625)" style=""><foreignObject width="55.171875" height="24"><div xmlns="http://www.w3.org/1999/xhtml" style="display: table-cell; white-space: nowrap; line-height: 1.5; max-width: 152px; text-align: start;"><span class="nodeLabel"><p>Address</p></span></div></foreignObject></g><g class="label attribute-type" transform="translate(-169.9140625, -118.875)" style=""><foreignObject width="33.046875" height="24"><div xmlns="http://www.w3.org/1999/xhtml" style="display: table-cell; white-space: nowrap; line-height: 1.5; max-width: 132px; text-align: start;"><span class="nodeLabel"><p>Guid</p></span></div></foreignObject></g><g class="label attribute-name" transform="translate(-88.3828125, -118.875)" style=""><foreignObject width="68.53125" height="24"><div xmlns="http://www.w3.org/1999/xhtml" style="display: table-cell; white-space: nowrap; line-height: 1.5; max-width: 166px; text-align: start;"><span class="nodeLabel"><p>AddressId</p></span></div></foreignObject></g><g class="label attribute-keys" transform="translate(35.8359375, -118.875)" style=""><foreignObject width="18.140625" height="24"><div xmlns="http://www.w3.org/1999/xhtml" style="display: table-cell; white-space: nowrap; line-height: 1.5; max-width: 121px; text-align: start;"><span class="nodeLabel"><p>PK</p></span></div></foreignObject></g><g class="label attribute-comment" transform="translate(78.9765625, -118.875)" style=""><foreignObject width="0" height="0"><div xmlns="http://www.w3.org/1999/xhtml" style="display: table-cell; white-space: nowrap; line-height: 1.5; max-width: 100px; text-align: start;"><span class="nodeLabel"></span></div></foreignObject></g><g class="label attribute-type" transform="translate(-169.9140625, -76.125)" style=""><foreignObject width="40.375" height="24"><div xmlns="http://www.w3.org/1999/xhtml" style="display: table-cell; white-space: nowrap; line-height: 1.5; max-width: 136px; text-align: start;"><span class="nodeLabel"><p>string</p></span></div></foreignObject></g><g class="label attribute-name" transform="translate(-88.3828125, -76.125)" style=""><foreignObject width="99.21875" height="24"><div xmlns="http://www.w3.org/1999/xhtml" style="display: table-cell; white-space: nowrap; line-height: 1.5; max-width: 190px; text-align: start;"><span class="nodeLabel"><p>StreetAddress</p></span></div></foreignObject></g><g class="label attribute-keys" transform="translate(35.8359375, -76.125)" style=""><foreignObject width="0" height="0"><div xmlns="http://www.w3.org/1999/xhtml" style="display: table-cell; white-space: nowrap; line-height: 1.5; max-width: 100px; text-align: start;"><span class="nodeLabel"></span></div></foreignObject></g><g class="label attribute-comment" transform="translate(78.9765625, -76.125)" style=""><foreignObject width="0" height="0"><div xmlns="http://www.w3.org/1999/xhtml" style="display: table-cell; white-space: nowrap; line-height: 1.5; max-width: 100px; text-align: start;"><span class="nodeLabel"></span></div></foreignObject></g><g class="label attribute-type" transform="translate(-169.9140625, -33.375)" style=""><foreignObject width="40.375" height="24"><div xmlns="http://www.w3.org/1999/xhtml" style="display: table-cell; white-space: nowrap; line-height: 1.5; max-width: 136px; text-align: start;"><span class="nodeLabel"><p>string</p></span></div></foreignObject></g><g class="label attribute-name" transform="translate(-88.3828125, -33.375)" style=""><foreignObject width="89.859375" height="24"><div xmlns="http://www.w3.org/1999/xhtml" style="display: table-cell; white-space: nowrap; line-height: 1.5; max-width: 184px; text-align: start;"><span class="nodeLabel"><p>SuburbName</p></span></div></foreignObject></g><g class="label attribute-keys" transform="translate(35.8359375, -33.375)" style=""><foreignObject width="0" height="0"><div xmlns="http://www.w3.org/1999/xhtml" style="display: table-cell; white-space: nowrap; line-height: 1.5; max-width: 100px; text-align: start;"><span class="nodeLabel"></span></div></foreignObject></g><g class="label attribute-comment" transform="translate(78.9765625, -33.375)" style=""><foreignObject width="0" height="0"><div xmlns="http://www.w3.org/1999/xhtml" style="display: table-cell; white-space: nowrap; line-height: 1.5; max-width: 100px; text-align: start;"><span class="nodeLabel"></span></div></foreignObject></g><g class="label attribute-type" transform="translate(-169.9140625, 9.375)" style=""><foreignObject width="40.375" height="24"><div xmlns="http://www.w3.org/1999/xhtml" style="display: table-cell; white-space: nowrap; line-height: 1.5; max-width: 136px; text-align: start;"><span class="nodeLabel"><p>string</p></span></div></foreignObject></g><g class="label attribute-name" transform="translate(-88.3828125, 9.375)" style=""><foreignObject width="69" height="24"><div xmlns="http://www.w3.org/1999/xhtml" style="display: table-cell; white-space: nowrap; line-height: 1.5; max-width: 166px; text-align: start;"><span class="nodeLabel"><p>CityName</p></span></div></foreignObject></g><g class="label attribute-keys" transform="translate(35.8359375, 9.375)" style=""><foreignObject width="0" height="0"><div xmlns="http://www.w3.org/1999/xhtml" style="display: table-cell; white-space: nowrap; line-height: 1.5; max-width: 100px; text-align: start;"><span class="nodeLabel"></span></div></foreignObject></g><g class="label attribute-comment" transform="translate(78.9765625, 9.375)" style=""><foreignObject width="0" height="0"><div xmlns="http://www.w3.org/1999/xhtml" style="display: table-cell; white-space: nowrap; line-height: 1.5; max-width: 100px; text-align: start;"><span class="nodeLabel"></span></div></foreignObject></g><g class="label attribute-type" transform="translate(-169.9140625, 52.125)" style=""><foreignObject width="40.375" height="24"><div xmlns="http://www.w3.org/1999/xhtml" style="display: table-cell; white-space: nowrap; line-height: 1.5; max-width: 136px; text-align: start;"><span class="nodeLabel"><p>string</p></span></div></foreignObject></g><g class="label attribute-name" transform="translate(-88.3828125, 52.125)" style=""><foreignObject width="60.765625" height="24"><div xmlns="http://www.w3.org/1999/xhtml" style="display: table-cell; white-space: nowrap; line-height: 1.5; max-width: 157px; text-align: start;"><span class="nodeLabel"><p>Province</p></span></div></foreignObject></g><g class="label attribute-keys" transform="translate(35.8359375, 52.125)" style=""><foreignObject width="0" height="0"><div xmlns="http://www.w3.org/1999/xhtml" style="display: table-cell; white-space: nowrap; line-height: 1.5; max-width: 100px; text-align: start;"><span class="nodeLabel"></span></div></foreignObject></g><g class="label attribute-comment" transform="translate(78.9765625, 52.125)" style=""><foreignObject width="0" height="0"><div xmlns="http://www.w3.org/1999/xhtml" style="display: table-cell; white-space: nowrap; line-height: 1.5; max-width: 100px; text-align: start;"><span class="nodeLabel"></span></div></foreignObject></g><g class="label attribute-type" transform="translate(-169.9140625, 94.875)" style=""><foreignObject width="56.53125" height="24"><div xmlns="http://www.w3.org/1999/xhtml" style="display: table-cell; white-space: nowrap; line-height: 1.5; max-width: 151px; text-align: start;"><span class="nodeLabel"><p>decimal</p></span></div></foreignObject></g><g class="label attribute-name" transform="translate(-88.3828125, 94.875)" style=""><foreignObject width="70.75" height="24"><div xmlns="http://www.w3.org/1999/xhtml" style="display: table-cell; white-space: nowrap; line-height: 1.5; max-width: 166px; text-align: start;"><span class="nodeLabel"><p>Longitude</p></span></div></foreignObject></g><g class="label attribute-keys" transform="translate(35.8359375, 94.875)" style=""><foreignObject width="0" height="0"><div xmlns="http://www.w3.org/1999/xhtml" style="display: table-cell; white-space: nowrap; line-height: 1.5; max-width: 100px; text-align: start;"><span class="nodeLabel"></span></div></foreignObject></g><g class="label attribute-comment" transform="translate(78.9765625, 94.875)" style=""><foreignObject width="90.9375" height="24"><div xmlns="http://www.w3.org/1999/xhtml" style="display: table-cell; white-space: nowrap; line-height: 1.5; max-width: 181px; text-align: start;"><span class="nodeLabel"><p>decimal(9,6)</p></span></div></foreignObject></g><g class="label attribute-type" transform="translate(-169.9140625, 137.625)" style=""><foreignObject width="56.53125" height="24"><div xmlns="http://www.w3.org/1999/xhtml" style="display: table-cell; white-space: nowrap; line-height: 1.5; max-width: 151px; text-align: start;"><span class="nodeLabel"><p>decimal</p></span></div></foreignObject></g><g class="label attribute-name" transform="translate(-88.3828125, 137.625)" style=""><foreignObject width="60.140625" height="24"><div xmlns="http://www.w3.org/1999/xhtml" style="display: table-cell; white-space: nowrap; line-height: 1.5; max-width: 153px; text-align: start;"><span class="nodeLabel"><p>Latitude</p></span></div></foreignObject></g><g class="label attribute-keys" transform="translate(35.8359375, 137.625)" style=""><foreignObject width="0" height="0"><div xmlns="http://www.w3.org/1999/xhtml" style="display: table-cell; white-space: nowrap; line-height: 1.5; max-width: 100px; text-align: start;"><span class="nodeLabel"></span></div></foreignObject></g><g class="label attribute-comment" transform="translate(78.9765625, 137.625)" style=""><foreignObject width="90.9375" height="24"><div xmlns="http://www.w3.org/1999/xhtml" style="display: table-cell; white-space: nowrap; line-height: 1.5; max-width: 181px; text-align: start;"><span class="nodeLabel"><p>decimal(9,6)</p></span></div></foreignObject></g><g class="divider"><path d="M-182.4140625 -128.25 C-49.18754941768245 -128.25, 84.0389636646351 -128.25, 182.4140625 -128.25 M-182.4140625 -128.25 C-41.14634539947815 -128.25, 100.1213717010437 -128.25, 182.4140625 -128.25" stroke="#9370DB" stroke-width="1.3" fill="none" stroke-dasharray="0 0"/></g><g class="divider"><path d="M-100.8828125 -128.25 C-100.8828125 -13.667847999246462, -100.8828125 100.91430400150708, -100.8828125 171 M-100.8828125 -128.25 C-100.8828125 -14.027118113002572, -100.8828125 100.19576377399486, -100.8828125 171" stroke="#9370DB" stroke-width="1.3" fill="none" stroke-dasharray="0 0"/></g><g class="divider"><path d="M23.3359375 -128.25 C23.3359375 -59.57609797725355, 23.3359375 9.097804045492893, 23.3359375 171 M23.3359375 -128.25 C23.3359375 -24.179973961003597, 23.3359375 79.8900520779928, 23.3359375 171" stroke="#9370DB" stroke-width="1.3" fill="none" stroke-dasharray="0 0"/></g><g class="divider"><path d="M66.4765625 -128.25 C66.4765625 -65.81728874683104, 66.4765625 -3.3845774936620785, 66.4765625 171 M66.4765625 -128.25 C66.4765625 -32.36694630027229, 66.4765625 63.51610739945542, 66.4765625 171" stroke="#9370DB" stroke-width="1.3" fill="none" stroke-dasharray="0 0"/></g><g class="divider"><path d="M-182.4140625 -128.25 C-97.72867035834622 -128.25, -13.043278216692443 -128.25, 182.4140625 -128.25 M-182.4140625 -128.25 C-100.58635297097172 -128.25, -18.758643441943434 -128.25, 182.4140625 -128.25" stroke="#9370DB" stroke-width="1.3" fill="none" stroke-dasharray="0 0"/></g></g><g class="node default" id="entity-ApplicationUser-4" transform="translate(247.1640625, 1294.25)"><g style=""><path d="M-142.421875 -171 L142.421875 -171 L142.421875 171 L-142.421875 171" stroke="none" stroke-width="0" fill="#ECECFF"/><path d="M-142.421875 -171 C-35.188270341918255 -171, 72.04533431616349 -171, 142.421875 -171 M-142.421875 -171 C-74.10644889626896 -171, -5.791022792537916 -171, 142.421875 -171 M142.421875 -171 C142.421875 -53.879015217057244, 142.421875 63.24196956588551, 142.421875 171 M142.421875 -171 C142.421875 -39.678182559424044, 142.421875 91.64363488115191, 142.421875 171 M142.421875 171 C65.55865737358835 171, -11.304560252823308 171, -142.421875 171 M142.421875 171 C34.47943476660241 171, -73.46300546679518 171, -142.421875 171 M-142.421875 171 C-142.421875 59.428979448506325, -142.421875 -52.14204110298735, -142.421875 -171 M-142.421875 171 C-142.421875 54.719538214899075, -142.421875 -61.56092357020185, -142.421875 -171" stroke="#9370DB" stroke-width="1.3" fill="none" stroke-dasharray="0 0"/></g><g style="" class="row-rect-odd"><path d="M-142.421875 -128.25 L142.421875 -128.25 L142.421875 -85.5 L-142.421875 -85.5" stroke="none" stroke-width="0" fill="hsl(240, 100%, 100%)"/><path d="M-142.421875 -128.25 C-33.861899911761455 -128.25, 74.69807517647709 -128.25, 142.421875 -128.25 M-142.421875 -128.25 C-70.33617215578423 -128.25, 1.7495306884315482 -128.25, 142.421875 -128.25 M142.421875 -128.25 C142.421875 -118.34951797930816, 142.421875 -108.44903595861634, 142.421875 -85.5 M142.421875 -128.25 C142.421875 -112.8245511570958, 142.421875 -97.39910231419158, 142.421875 -85.5 M142.421875 -85.5 C83.7125004194954 -85.5, 25.003125838990783 -85.5, -142.421875 -85.5 M142.421875 -85.5 C72.86442465680702 -85.5, 3.3069743136140346 -85.5, -142.421875 -85.5 M-142.421875 -85.5 C-142.421875 -99.6345347197741, -142.421875 -113.76906943954819, -142.421875 -128.25 M-142.421875 -85.5 C-142.421875 -102.15996674545902, -142.421875 -118.81993349091803, -142.421875 -128.25" stroke="#9370DB" stroke-width="1.3" fill="none" stroke-dasharray="0 0"/></g><g style="" class="row-rect-even"><path d="M-142.421875 -85.5 L142.421875 -85.5 L142.421875 -42.75 L-142.421875 -42.75" stroke="none" stroke-width="0" fill="hsl(240, 100%, 97.2745098039%)"/><path d="M-142.421875 -85.5 C-41.75691200472828 -85.5, 58.908050990543444 -85.5, 142.421875 -85.5 M-142.421875 -85.5 C-39.34865295214327 -85.5, 63.72456909571346 -85.5, 142.421875 -85.5 M142.421875 -85.5 C142.421875 -68.83411819109098, 142.421875 -52.168236382181966, 142.421875 -42.75 M142.421875 -85.5 C142.421875 -71.28993574478493, 142.421875 -57.07987148956987, 142.421875 -42.75 M142.421875 -42.75 C79.97427153903229 -42.75, 17.526668078064574 -42.75, -142.421875 -42.75 M142.421875 -42.75 C66.09039601607974 -42.75, -10.241082967840526 -42.75, -142.421875 -42.75 M-142.421875 -42.75 C-142.421875 -58.14655228332796, -142.421875 -73.54310456665593, -142.421875 -85.5 M-142.421875 -42.75 C-142.421875 -53.21056524994349, -142.421875 -63.671130499886985, -142.421875 -85.5" stroke="#9370DB" stroke-width="1.3" fill="none" stroke-dasharray="0 0"/></g><g style="" class="row-rect-odd"><path d="M-142.421875 -42.75 L142.421875 -42.75 L142.421875 0 L-142.421875 0" stroke="none" stroke-width="0" fill="hsl(240, 100%, 100%)"/><path d="M-142.421875 -42.75 C-52.342170041046145 -42.75, 37.73753491790771 -42.75, 142.421875 -42.75 M-142.421875 -42.75 C-28.69316086120054 -42.75, 85.03555327759892 -42.75, 142.421875 -42.75 M142.421875 -42.75 C142.421875 -31.87187557850893, 142.421875 -20.99375115701786, 142.421875 0 M142.421875 -42.75 C142.421875 -27.829350302298543, 142.421875 -12.908700604597083, 142.421875 0 M142.421875 0 C49.530450711656485 0, -43.36097357668703 0, -142.421875 0 M142.421875 0 C78.36975000851645 0, 14.317625017032896 0, -142.421875 0 M-142.421875 0 C-142.421875 -11.128680669202575, -142.421875 -22.25736133840515, -142.421875 -42.75 M-142.421875 0 C-142.421875 -14.679646637939564, -142.421875 -29.35929327587913, -142.421875 -42.75" stroke="#9370DB" stroke-width="1.3" fill="none" stroke-dasharray="0 0"/></g><g style="" class="row-rect-even"><path d="M-142.421875 0 L142.421875 0 L142.421875 42.75 L-142.421875 42.75" stroke="none" stroke-width="0" fill="hsl(240, 100%, 97.2745098039%)"/><path d="M-142.421875 0 C-68.77179728322615 0, 4.878280433547701 0, 142.421875 0 M-142.421875 0 C-29.39365695655509 0, 83.63456108688982 0, 142.421875 0 M142.421875 0 C142.421875 12.57965469771735, 142.421875 25.1593093954347, 142.421875 42.75 M142.421875 0 C142.421875 11.020375968385373, 142.421875 22.040751936770747, 142.421875 42.75 M142.421875 42.75 C74.0866513896289 42.75, 5.751427779257796 42.75, -142.421875 42.75 M142.421875 42.75 C75.33066895503983 42.75, 8.239462910079652 42.75, -142.421875 42.75 M-142.421875 42.75 C-142.421875 31.360266432356163, -142.421875 19.970532864712325, -142.421875 0 M-142.421875 42.75 C-142.421875 33.15924487038753, -142.421875 23.56848974077506, -142.421875 0" stroke="#9370DB" stroke-width="1.3" fill="none" stroke-dasharray="0 0"/></g><g style="" class="row-rect-odd"><path d="M-142.421875 42.75 L142.421875 42.75 L142.421875 85.5 L-142.421875 85.5" stroke="none" stroke-width="0" fill="hsl(240, 100%, 100%)"/><path d="M-142.421875 42.75 C-67.04306236901154 42.75, 8.335750261976926 42.75, 142.421875 42.75 M-142.421875 42.75 C-28.556662385267813 42.75, 85.30855022946437 42.75, 142.421875 42.75 M142.421875 42.75 C142.421875 52.68593938318022, 142.421875 62.62187876636044, 142.421875 85.5 M142.421875 42.75 C142.421875 54.01476824301308, 142.421875 65.27953648602616, 142.421875 85.5 M142.421875 85.5 C51.450500040215275 85.5, -39.52087491956945 85.5, -142.421875 85.5 M142.421875 85.5 C80.6042442863216 85.5, 18.78661357264322 85.5, -142.421875 85.5 M-142.421875 85.5 C-142.421875 76.02361118605533, -142.421875 66.54722237211067, -142.421875 42.75 M-142.421875 85.5 C-142.421875 71.87177503440107, -142.421875 58.243550068802136, -142.421875 42.75" stroke="#9370DB" stroke-width="1.3" fill="none" stroke-dasharray="0 0"/></g><g style="" class="row-rect-even"><path d="M-142.421875 85.5 L142.421875 85.5 L142.421875 128.25 L-142.421875 128.25" stroke="none" stroke-width="0" fill="hsl(240, 100%, 97.2745098039%)"/><path d="M-142.421875 85.5 C-57.7935351594264 85.5, 26.834804681147205 85.5, 142.421875 85.5 M-142.421875 85.5 C-83.98932960949385 85.5, -25.5567842189877 85.5, 142.421875 85.5 M142.421875 85.5 C142.421875 94.36305530167796, 142.421875 103.22611060335592, 142.421875 128.25 M142.421875 85.5 C142.421875 99.20080552372534, 142.421875 112.90161104745067, 142.421875 128.25 M142.421875 128.25 C81.417588236185 128.25, 20.41330147236998 128.25, -142.421875 128.25 M142.421875 128.25 C55.224161111616525 128.25, -31.97355277676695 128.25, -142.421875 128.25 M-142.421875 128.25 C-142.421875 117.41624377290337, -142.421875 106.58248754580674, -142.421875 85.5 M-142.421875 128.25 C-142.421875 116.53236236110627, -142.421875 104.81472472221255, -142.421875 85.5" stroke="#9370DB" stroke-width="1.3" fill="none" stroke-dasharray="0 0"/></g><g style="" class="row-rect-odd"><path d="M-142.421875 128.25 L142.421875 128.25 L142.421875 171 L-142.421875 171" stroke="none" stroke-width="0" fill="hsl(240, 100%, 100%)"/><path d="M-142.421875 128.25 C-58.48399001603403 128.25, 25.453894967931944 128.25, 142.421875 128.25 M-142.421875 128.25 C-75.14498402832146 128.25, -7.86809305664292 128.25, 142.421875 128.25 M142.421875 128.25 C142.421875 138.5339503807078, 142.421875 148.81790076141561, 142.421875 171 M142.421875 128.25 C142.421875 145.17772986134082, 142.421875 162.10545972268164, 142.421875 171 M142.421875 171 C53.50494078887348 171, -35.41199342225303 171, -142.421875 171 M142.421875 171 C50.41306341020574 171, -41.595748179588526 171, -142.421875 171 M-142.421875 171 C-142.421875 160.55532610140767, -142.421875 150.11065220281534, -142.421875 128.25 M-142.421875 171 C-142.421875 155.5083347267174, -142.421875 140.01666945343482, -142.421875 128.25" stroke="#9370DB" stroke-width="1.3" fill="none" stroke-dasharray="0 0"/></g><g class="label name" transform="translate(-56.453125, -161.625)" style=""><foreignObject width="112.90625" height="24"><div xmlns="http://www.w3.org/1999/xhtml" style="display: table-cell; white-space: nowrap; line-height: 1.5; max-width: 206px; text-align: start;"><span class="nodeLabel"><p>ApplicationUser</p></span></div></foreignObject></g><g class="label attribute-type" transform="translate(-129.921875, -118.875)" style=""><foreignObject width="33.046875" height="24"><div xmlns="http://www.w3.org/1999/xhtml" style="display: table-cell; white-space: nowrap; line-height: 1.5; max-width: 132px; text-align: start;"><span class="nodeLabel"><p>Guid</p></span></div></foreignObject></g><g class="label attribute-name" transform="translate(-39.5, -118.875)" style=""><foreignObject width="126.28125" height="24"><div xmlns="http://www.w3.org/1999/xhtml" style="display: table-cell; white-space: nowrap; line-height: 1.5; max-width: 219px; text-align: start;"><span class="nodeLabel"><p>ApplicationUserId</p></span></div></foreignObject></g><g class="label attribute-keys" transform="translate(111.78125, -118.875)" style=""><foreignObject width="18.140625" height="24"><div xmlns="http://www.w3.org/1999/xhtml" style="display: table-cell; white-space: nowrap; line-height: 1.5; max-width: 121px; text-align: start;"><span class="nodeLabel"><p>PK</p></span></div></foreignObject></g><g class="label attribute-comment" transform="translate(154.921875, -118.875)" style=""><foreignObject width="0" height="0"><div xmlns="http://www.w3.org/1999/xhtml" style="display: table-cell; white-space: nowrap; line-height: 1.5; max-width: 100px; text-align: start;"><span class="nodeLabel"></span></div></foreignObject></g><g class="label attribute-type" transform="translate(-129.921875, -76.125)" style=""><foreignObject width="40.375" height="24"><div xmlns="http://www.w3.org/1999/xhtml" style="display: table-cell; white-space: nowrap; line-height: 1.5; max-width: 136px; text-align: start;"><span class="nodeLabel"><p>string</p></span></div></foreignObject></g><g class="label attribute-name" transform="translate(-39.5, -76.125)" style=""><foreignObject width="94.703125" height="24"><div xmlns="http://www.w3.org/1999/xhtml" style="display: table-cell; white-space: nowrap; line-height: 1.5; max-width: 191px; text-align: start;"><span class="nodeLabel"><p>EmailAddress</p></span></div></foreignObject></g><g class="label attribute-keys" transform="translate(111.78125, -76.125)" style=""><foreignObject width="0" height="0"><div xmlns="http://www.w3.org/1999/xhtml" style="display: table-cell; white-space: nowrap; line-height: 1.5; max-width: 100px; text-align: start;"><span class="nodeLabel"></span></div></foreignObject></g><g class="label attribute-comment" transform="translate(154.921875, -76.125)" style=""><foreignObject width="0" height="0"><div xmlns="http://www.w3.org/1999/xhtml" style="display: table-cell; white-space: nowrap; line-height: 1.5; max-width: 100px; text-align: start;"><span class="nodeLabel"></span></div></foreignObject></g><g class="label attribute-type" transform="translate(-129.921875, -33.375)" style=""><foreignObject width="40.375" height="24"><div xmlns="http://www.w3.org/1999/xhtml" style="display: table-cell; white-space: nowrap; line-height: 1.5; max-width: 136px; text-align: start;"><span class="nodeLabel"><p>string</p></span></div></foreignObject></g><g class="label attribute-name" transform="translate(-39.5, -33.375)" style=""><foreignObject width="72.625" height="24"><div xmlns="http://www.w3.org/1999/xhtml" style="display: table-cell; white-space: nowrap; line-height: 1.5; max-width: 168px; text-align: start;"><span class="nodeLabel"><p>FirstName</p></span></div></foreignObject></g><g class="label attribute-keys" transform="translate(111.78125, -33.375)" style=""><foreignObject width="0" height="0"><div xmlns="http://www.w3.org/1999/xhtml" style="display: table-cell; white-space: nowrap; line-height: 1.5; max-width: 100px; text-align: start;"><span class="nodeLabel"></span></div></foreignObject></g><g class="label attribute-comment" transform="translate(154.921875, -33.375)" style=""><foreignObject width="0" height="0"><div xmlns="http://www.w3.org/1999/xhtml" style="display: table-cell; white-space: nowrap; line-height: 1.5; max-width: 100px; text-align: start;"><span class="nodeLabel"></span></div></foreignObject></g><g class="label attribute-type" transform="translate(-129.921875, 9.375)" style=""><foreignObject width="40.375" height="24"><div xmlns="http://www.w3.org/1999/xhtml" style="display: table-cell; white-space: nowrap; line-height: 1.5; max-width: 136px; text-align: start;"><span class="nodeLabel"><p>string</p></span></div></foreignObject></g><g class="label attribute-name" transform="translate(-39.5, 9.375)" style=""><foreignObject width="69.953125" height="24"><div xmlns="http://www.w3.org/1999/xhtml" style="display: table-cell; white-space: nowrap; line-height: 1.5; max-width: 166px; text-align: start;"><span class="nodeLabel"><p>LastName</p></span></div></foreignObject></g><g class="label attribute-keys" transform="translate(111.78125, 9.375)" style=""><foreignObject width="0" height="0"><div xmlns="http://www.w3.org/1999/xhtml" style="display: table-cell; white-space: nowrap; line-height: 1.5; max-width: 100px; text-align: start;"><span class="nodeLabel"></span></div></foreignObject></g><g class="label attribute-comment" transform="translate(154.921875, 9.375)" style=""><foreignObject width="0" height="0"><div xmlns="http://www.w3.org/1999/xhtml" style="display: table-cell; white-space: nowrap; line-height: 1.5; max-width: 100px; text-align: start;"><span class="nodeLabel"></span></div></foreignObject></g><g class="label attribute-type" transform="translate(-129.921875, 52.125)" style=""><foreignObject width="40.375" height="24"><div xmlns="http://www.w3.org/1999/xhtml" style="display: table-cell; white-space: nowrap; line-height: 1.5; max-width: 136px; text-align: start;"><span class="nodeLabel"><p>string</p></span></div></foreignObject></g><g class="label attribute-name" transform="translate(-39.5, 52.125)" style=""><foreignObject width="125.515625" height="24"><div xmlns="http://www.w3.org/1999/xhtml" style="display: table-cell; white-space: nowrap; line-height: 1.5; max-width: 217px; text-align: start;"><span class="nodeLabel"><p>EmployeeNumber</p></span></div></foreignObject></g><g class="label attribute-keys" transform="translate(111.78125, 52.125)" style=""><foreignObject width="0" height="0"><div xmlns="http://www.w3.org/1999/xhtml" style="display: table-cell; white-space: nowrap; line-height: 1.5; max-width: 100px; text-align: start;"><span class="nodeLabel"></span></div></foreignObject></g><g class="label attribute-comment" transform="translate(154.921875, 52.125)" style=""><foreignObject width="0" height="0"><div xmlns="http://www.w3.org/1999/xhtml" style="display: table-cell; white-space: nowrap; line-height: 1.5; max-width: 100px; text-align: start;"><span class="nodeLabel"></span></div></foreignObject></g><g class="label attribute-type" transform="translate(-129.921875, 94.875)" style=""><foreignObject width="65.421875" height="24"><div xmlns="http://www.w3.org/1999/xhtml" style="display: table-cell; white-space: nowrap; line-height: 1.5; max-width: 162px; text-align: start;"><span class="nodeLabel"><p>DateOnly</p></span></div></foreignObject></g><g class="label attribute-name" transform="translate(-39.5, 94.875)" style=""><foreignObject width="84.90625" height="24"><div xmlns="http://www.w3.org/1999/xhtml" style="display: table-cell; white-space: nowrap; line-height: 1.5; max-width: 180px; text-align: start;"><span class="nodeLabel"><p>DateOfBirth</p></span></div></foreignObject></g><g class="label attribute-keys" transform="translate(111.78125, 94.875)" style=""><foreignObject width="0" height="0"><div xmlns="http://www.w3.org/1999/xhtml" style="display: table-cell; white-space: nowrap; line-height: 1.5; max-width: 100px; text-align: start;"><span class="nodeLabel"></span></div></foreignObject></g><g class="label attribute-comment" transform="translate(154.921875, 94.875)" style=""><foreignObject width="0" height="0"><div xmlns="http://www.w3.org/1999/xhtml" style="display: table-cell; white-space: nowrap; line-height: 1.5; max-width: 100px; text-align: start;"><span class="nodeLabel"></span></div></foreignObject></g><g class="label attribute-type" transform="translate(-129.921875, 137.625)" style=""><foreignObject width="33.046875" height="24"><div xmlns="http://www.w3.org/1999/xhtml" style="display: table-cell; white-space: nowrap; line-height: 1.5; max-width: 132px; text-align: start;"><span class="nodeLabel"><p>Guid</p></span></div></foreignObject></g><g class="label attribute-name" transform="translate(-39.5, 137.625)" style=""><foreignObject width="68.421875" height="24"><div xmlns="http://www.w3.org/1999/xhtml" style="display: table-cell; white-space: nowrap; line-height: 1.5; max-width: 166px; text-align: start;"><span class="nodeLabel"><p>OrgUnitId</p></span></div></foreignObject></g><g class="label attribute-keys" transform="translate(111.78125, 137.625)" style=""><foreignObject width="17.609375" height="24"><div xmlns="http://www.w3.org/1999/xhtml" style="display: table-cell; white-space: nowrap; line-height: 1.5; max-width: 121px; text-align: start;"><span class="nodeLabel"><p>FK</p></span></div></foreignObject></g><g class="label attribute-comment" transform="translate(154.921875, 137.625)" style=""><foreignObject width="0" height="0"><div xmlns="http://www.w3.org/1999/xhtml" style="display: table-cell; white-space: nowrap; line-height: 1.5; max-width: 100px; text-align: start;"><span class="nodeLabel"></span></div></foreignObject></g><g class="divider"><path d="M-142.421875 -128.25 C-74.22133842808522 -128.25, -6.020801856170436 -128.25, 142.421875 -128.25 M-142.421875 -128.25 C-58.00184120467988 -128.25, 26.418192590640245 -128.25, 142.421875 -128.25" stroke="#9370DB" stroke-width="1.3" fill="none" stroke-dasharray="0 0"/></g><g class="divider"><path d="M-52 -128.25 C-52 -22.040192683057057, -52 84.16961463388589, -52 171 M-52 -128.25 C-52 -15.152723484386257, -52 97.94455303122749, -52 171" stroke="#9370DB" stroke-width="1.3" fill="none" stroke-dasharray="0 0"/></g><g class="divider"><path d="M99.28125 -128.25 C99.28125 -17.05817806963374, 99.28125 94.13364386073252, 99.28125 171 M99.28125 -128.25 C99.28125 -46.03451997664081, 99.28125 36.18096004671838, 99.28125 171" stroke="#9370DB" stroke-width="1.3" fill="none" stroke-dasharray="0 0"/></g><g class="divider"><path d="M-142.421875 -128.25 C-65.18589414400995 -128.25, 12.0500867119801 -128.25, 142.421875 -128.25 M-142.421875 -128.25 C-84.46702632839131 -128.25, -26.51217765678261 -128.25, 142.421875 -128.25" stroke="#9370DB" stroke-width="1.3" fill="none" stroke-dasharray="0 0"/></g></g></g></g></g></svg>